<svg height="512" viewBox="0 0 64 64" width="512" xmlns="http://www.w3.org/2000/svg"><path d="m60 11h-56a3 3 0 0 0 -3 3v30a3 3 0 0 0 3 3h20.72l-.5 2h-3.22a1 1 0 0 0 -1 1v3a1 1 0 0 0 1 1h22a1 1 0 0 0 1-1v-3a1 1 0 0 0 -1-1h-3.22l-.5-2h20.72a3 3 0 0 0 3-3v-30a3 3 0 0 0 -3-3zm-57 3a1 1 0 0 1 1-1h56a1 1 0 0 1 1 1v25h-58zm39 38h-20v-1h20zm-4.281-3h-11.438l.5-2h10.438zm23.281-5a1 1 0 0 1 -1 1h-56a1 1 0 0 1 -1-1v-3h58z"/><path d="m6 44h4a1 1 0 0 0 0-2h-4a1 1 0 0 0 0 2z"/><path d="m13 44h1a1 1 0 0 0 0-2h-1a1 1 0 0 0 0 2z"/><path d="m32.561 19.172a1.014 1.014 0 0 0 -.191-.1l-10-4a1.011 1.011 0 0 0 -.742 0l-10 4a.981.981 0 0 0 -.191.1 1 1 0 0 0 -.437.828v12a1 1 0 0 0 .629.929l10 4c.011 0 .024 0 .035.006a.9.9 0 0 0 .672 0c.011 0 .024 0 .035-.006l10-4a1 1 0 0 0 .629-.929v-12a1 1 0 0 0 -.439-.828zm-10.561-2.095 7.307 2.923-7.307 2.923-7.307-2.923zm-9 4.4 8 3.2v9.846l-8-3.2zm18 9.846-8 3.2v-9.846l8-3.2z"/><path d="m40.6 22.2a1 1 0 0 0 -1.4.2l-3 4a1 1 0 0 0 0 1.2l3 4a1 1 0 1 0 1.6-1.2l-2.55-3.4 2.55-3.4a1 1 0 0 0 -.2-1.4z"/><path d="m50.8 22.4a1 1 0 0 0 -1.6 1.2l2.55 3.4-2.55 3.4a1 1 0 1 0 1.6 1.2l3-4a1 1 0 0 0 0-1.2z"/><path d="m47.447 22.105a1 1 0 0 0 -1.342.448l-4 8a1 1 0 0 0 1.79.894l4-8a1 1 0 0 0 -.448-1.342z"/></svg>